<mxfile host="app.diagrams.net" modified="2023-11-02T01:03:20.373Z" agent="Mozilla/5.0 (Windows NT 10.0; Win64; x64; rv:109.0) Gecko/20100101 Firefox/119.0" version="22.0.8" etag="R3z6ojKWYDr7za95HPxR" type="github">
  <diagram name="Page-1" id="fvCVN2XYS4yNgo8-7P7I">
    <mxGraphModel>
      <root>
        <mxCell id="0" />
        <mxCell id="1" parent="0" />
      </root>
    </mxGraphModel>
  </diagram>
</mxfile>
